<svg width="36" height="37" viewBox="0 0 36 37" fill="none" xmlns="http://www.w3.org/2000/svg">
<g filter="url(#filter0_i_318_2168)">
<rect y="0.769043" width="36" height="36" rx="18" fill="#0C2B55" fill-opacity="0.1"/>
<rect x="0.229008" y="0.998051" width="35.542" height="35.542" rx="17.771" stroke="#00CAFC" stroke-width="0.458015"/>
<path d="M26 16.9432C26 12.8957 22.4163 9.60721 18 9.60721C13.5837 9.60721 10 12.8852 10 16.9432C10 17.0697 10.0105 17.1961 10.0211 17.3226C10.0105 17.3859 10 17.4491 10 17.5123C10 22.0235 17.3781 27.1355 17.3781 27.1355C17.3781 27.1355 17.9895 27.5571 18.6113 27.1355C19.2227 26.7139 25.9895 22.0235 25.9895 17.5123C25.9895 17.4491 25.9789 17.3859 25.9684 17.3226C25.9895 17.1961 26 17.0697 26 16.9432ZM18 19.7574C16.303 19.7574 14.9223 18.4926 14.9223 16.9326C14.9223 15.3727 16.303 14.1184 18 14.1184C19.697 14.1184 21.0777 15.3832 21.0777 16.9326C21.0777 18.4926 19.697 19.7574 18 19.7574Z" fill="url(#paint0_linear_318_2168)"/>
</g>
<defs>
<filter id="filter0_i_318_2168" x="0" y="0.769043" width="36" height="36" filterUnits="userSpaceOnUse" color-interpolation-filters="sRGB">
<feFlood flood-opacity="0" result="BackgroundImageFix"/>
<feBlend mode="normal" in="SourceGraphic" in2="BackgroundImageFix" result="shape"/>
<feColorMatrix in="SourceAlpha" type="matrix" values="0 0 0 0 0 0 0 0 0 0 0 0 0 0 0 0 0 0 127 0" result="hardAlpha"/>
<feOffset/>
<feGaussianBlur stdDeviation="5.49618"/>
<feComposite in2="hardAlpha" operator="arithmetic" k2="-1" k3="1"/>
<feColorMatrix type="matrix" values="0 0 0 0 0.0784314 0 0 0 0 0.980392 0 0 0 0 0.843137 0 0 0 0.5 0"/>
<feBlend mode="normal" in2="shape" result="effect1_innerShadow_318_2168"/>
</filter>
<linearGradient id="paint0_linear_318_2168" x1="18" y1="9.60721" x2="18" y2="27.3229" gradientUnits="userSpaceOnUse">
<stop stop-color="#14FAD7"/>
<stop offset="1" stop-color="white"/>
</linearGradient>
</defs>
</svg>
